<?xml version="1.0"?>
<svg xmlns="http://www.w3.org/2000/svg" viewBox="0 0 128 128" width="512" height="512"><path d="M8.643,127H89.366a2.953,2.953,0,0,0,2.953-2.953V3.953A2.953,2.953,0,0,0,89.366,1H26.36L5.69,21.67V124.047A2.953,2.953,0,0,0,8.643,127Z" fill="#fffffa"/><path d="M89.366,127a2.953,2.953,0,0,0,2.953-2.953V51.774H9.143a2.264,2.264,0,0,0-2.264,2.264v55.09a2.259,2.259,0,0,0,2.259,2.259H65.271l8.126,8.126a20.347,20.347,0,0,0,1.456,1.585V127Z" fill="#f0f0e6"/><path d="M5.69,21.67H24.441a1.919,1.919,0,0,0,1.919-1.919V1Z" fill="#f0f0e6"/><path d="M97.545,107.388H13.138a2.259,2.259,0,0,1-2.259-2.259V50.038a2.264,2.264,0,0,1,2.264-2.264h84.4A2.264,2.264,0,0,1,99.8,50.038v55.09A2.259,2.259,0,0,1,97.545,107.388Z" fill="#f0dc78"/><path d="M99.8,105.128V50.038a2.264,2.264,0,0,0-2.264-2.264H29.384V87.943A2.259,2.259,0,0,0,31.644,90.2H68.782V99.75l-5.505-5.505a7.921,7.921,0,0,0-11.2,0,2.791,2.791,0,0,0,0,3.947l9.2,9.2H97.545A2.259,2.259,0,0,0,99.8,105.128Z" fill="#dcc864"/><path d="M99.8,60.294H10.879V50.038a2.264,2.264,0,0,1,2.264-2.264h84.4A2.264,2.264,0,0,1,99.8,50.038Z" fill="#aad2ff"/><path d="M12.985,52.144a2.264,2.264,0,0,1,2.264-2.264h84.4c.049,0,.105.011.154.014a2.267,2.267,0,0,0-2.26-2.12h-84.4a2.264,2.264,0,0,0-2.264,2.264V60.294h2.106Z" fill="#bee6ff"/><circle cx="16.75" cy="55.321" r="1.533" fill="#96bef0"/><circle cx="22.883" cy="55.321" r="1.533" fill="#96bef0"/><circle cx="29.017" cy="55.321" r="1.533" fill="#96bef0"/><circle cx="16.75" cy="54.715" r="1.533" fill="#e678a0"/><circle cx="22.883" cy="54.715" r="1.533" fill="#f0dc78"/><circle cx="29.017" cy="54.715" r="1.533" fill="#8d7bd4"/><path d="M120.051,86.2H35.644a2.259,2.259,0,0,1-2.259-2.259V17.934a2.264,2.264,0,0,1,2.264-2.264h84.4a2.264,2.264,0,0,1,2.264,2.264V83.943A2.259,2.259,0,0,1,120.051,86.2Z" fill="#fa8cb4"/><path d="M100.136,53.873a21.064,21.064,0,0,0-2.493-6.014l3.982-3.982L94.54,36.793l-3.982,3.982a21.062,21.062,0,0,0-6.014-2.494V32.652H74.524v5.629a21.062,21.062,0,0,0-6.014,2.494l-3.982-3.982-7.085,7.085,3.982,3.982a21.062,21.062,0,0,0-2.493,6.014H53.3V63.892h5.629a21.064,21.064,0,0,0,2.493,6.014l-3.982,3.982,7.085,7.085,3.982-3.982a21.062,21.062,0,0,0,6.014,2.494v5.629H84.543V79.485a21.062,21.062,0,0,0,6.014-2.494l3.982,3.982,7.085-7.085-3.982-3.982a21.063,21.063,0,0,0,2.493-6.014h5.629V53.873Zm-20.6,18.58A13.571,13.571,0,1,1,93.1,58.883,13.571,13.571,0,0,1,79.534,72.453Z" fill="#e678a0"/><path d="M122.31,28.19H33.384V17.934a2.264,2.264,0,0,1,2.264-2.264h84.4a2.264,2.264,0,0,1,2.264,2.264Z" fill="#aad2ff"/><path d="M35.49,20.04a2.264,2.264,0,0,1,2.264-2.264h84.4c.049,0,.105.011.154.014a2.267,2.267,0,0,0-2.26-2.12h-84.4a2.264,2.264,0,0,0-2.264,2.264V28.19H35.49Z" fill="#bee6ff"/><circle cx="39.255" cy="23.217" r="1.533" fill="#96bef0"/><circle cx="45.389" cy="23.217" r="1.533" fill="#96bef0"/><circle cx="51.522" cy="23.217" r="1.533" fill="#96bef0"/><circle cx="39.255" cy="22.61" r="1.533" fill="#e678a0"/><circle cx="45.389" cy="22.61" r="1.533" fill="#f0dc78"/><circle cx="51.522" cy="22.61" r="1.533" fill="#8d7bd4"/><path d="M98.449,52.187a21.064,21.064,0,0,0-2.493-6.014l3.982-3.982-7.085-7.085-3.982,3.982a21.062,21.062,0,0,0-6.014-2.494V30.965H72.838v5.629a21.062,21.062,0,0,0-6.014,2.494l-3.982-3.982-7.085,7.085,3.982,3.982a21.062,21.062,0,0,0-2.493,6.014H51.617V62.206h5.629a21.064,21.064,0,0,0,2.493,6.014L55.757,72.2l7.085,7.085L66.824,75.3A21.062,21.062,0,0,0,72.838,77.8v5.629H82.857V77.8A21.062,21.062,0,0,0,88.871,75.3l3.982,3.982L99.938,72.2,95.955,68.22a21.063,21.063,0,0,0,2.493-6.014h5.629V52.187Zm-20.6,18.58A13.571,13.571,0,1,1,91.418,57.2,13.571,13.571,0,0,1,77.847,70.767Z" fill="#f0dc78"/><path d="M108.19,78.369a5.058,5.058,0,0,0-5.058,5.058V79.338a5.058,5.058,0,0,0-5.058-5.058h0a5.058,5.058,0,0,0-5.058,5.058v-2.55a5.058,5.058,0,1,0-10.117,0V58.681a5.058,5.058,0,0,0-5.058-5.058h0a5.058,5.058,0,0,0-5.058,5.058V95.75l-5.505-5.505a7.921,7.921,0,0,0-11.2,0,2.791,2.791,0,0,0,0,3.947L77.4,115.514a20.347,20.347,0,0,0,1.456,1.585v-.129h28.322v.119a20.163,20.163,0,0,0,6.072-14.44V83.427A5.058,5.058,0,0,0,108.19,78.369Z" fill="#ffc8d2"/><path d="M109.81,78.658a5.006,5.006,0,0,1,.289,1.62V99.5a20.163,20.163,0,0,1-6.072,14.44v-.119H75.7l1.693,1.693a20.347,20.347,0,0,0,1.456,1.585v-.129h28.322v.119a20.163,20.163,0,0,0,6.072-14.44V83.427A5.042,5.042,0,0,0,109.81,78.658Z" fill="#ffb4be"/><rect x="78.854" y="116.97" width="28.322" height="10.03" fill="#e678a0"/><rect x="78.854" y="121.985" width="28.322" height="5.015" fill="#d2648c"/><path d="M63.595,128H8.643a3.958,3.958,0,0,1-3.953-3.953V21.67a1,1,0,0,1,.293-.707L25.653.293A1,1,0,0,1,26.36,0H89.366a3.958,3.958,0,0,1,3.953,3.953V15.67a1,1,0,0,1-1,1H35.648a1.265,1.265,0,0,0-1.264,1.264v29.84a1,1,0,0,1-1,1H13.143a1.265,1.265,0,0,0-1.264,1.264V64a1,1,0,0,1-2,0V50.039a3.268,3.268,0,0,1,3.264-3.264H32.384V17.934a3.268,3.268,0,0,1,3.264-3.264H91.319V3.953A1.955,1.955,0,0,0,89.366,2H26.774L6.69,22.084V124.047A1.955,1.955,0,0,0,8.643,126H63.595a1,1,0,0,1,0,2Z" fill="#785ae6"/><path d="M78.854,128H72.782a1,1,0,0,1,0-2h5.072v-8.486c-.43-.438-.842-.9-1.228-1.363l-7.769-7.763H13.138a3.263,3.263,0,0,1-3.259-3.259V72.454a1,1,0,0,1,2,0v32.675a1.261,1.261,0,0,0,1.259,1.259H69.271a1,1,0,0,1,.707.293l8.126,8.126a21.147,21.147,0,0,0,1.449,1.578,1,1,0,0,1,.3.714V127A1,1,0,0,1,78.854,128Z" fill="#785ae6"/><path d="M24.441,22.67H5.69a1,1,0,0,1-.707-1.707L25.653.293A1,1,0,0,1,27.36,1V19.751A2.922,2.922,0,0,1,24.441,22.67ZM8.1,20.67H24.441a.92.92,0,0,0,.919-.919V3.414Z" fill="#785ae6"/><path d="M69.271,108.388H13.138a3.263,3.263,0,0,1-3.259-3.259V72.454a1,1,0,0,1,2,0v32.675a1.261,1.261,0,0,0,1.259,1.259H66.857L55.368,94.9a3.79,3.79,0,0,1,0-5.361A8.866,8.866,0,0,1,59.477,87.2H35.644a3.263,3.263,0,0,1-3.259-3.259V48.774H13.143a1.265,1.265,0,0,0-1.264,1.264V64a1,1,0,0,1-2,0V50.039a3.268,3.268,0,0,1,3.264-3.264H33.384a1,1,0,0,1,1,1V83.943A1.261,1.261,0,0,0,35.644,85.2H72.782a1,1,0,0,1,1,1V95.75a1,1,0,0,1-1.707.707l-5.5-5.5a6.929,6.929,0,0,0-9.788,0,1.791,1.791,0,0,0,0,2.533l13.2,13.2a1,1,0,0,1-.707,1.707ZM63.875,87.2a8.866,8.866,0,0,1,4.108,2.335l3.8,3.8V87.2Z" fill="#785ae6"/><path d="M33.384,61.294H10.879a1,1,0,0,1-1-1V50.039a3.268,3.268,0,0,1,3.264-3.264H33.384a1,1,0,0,1,1,1v12.52A1,1,0,0,1,33.384,61.294Zm-21.505-2H32.384V48.774H13.143a1.265,1.265,0,0,0-1.264,1.264Z" fill="#785ae6"/><path d="M62.842,80.287a1,1,0,0,1-.707-.293L55.05,72.909a1,1,0,0,1,0-1.414l3.436-3.437a22.043,22.043,0,0,1-2.012-4.853H51.617a1,1,0,0,1-1-1V52.187a1,1,0,0,1,1-1h4.857a22.043,22.043,0,0,1,2.012-4.853L55.05,42.9a1,1,0,0,1,0-1.414L62.135,34.4a1,1,0,0,1,1.414,0l3.436,3.436a22.039,22.039,0,0,1,4.853-2.012V30.965a1,1,0,0,1,1-1H82.857a1,1,0,0,1,1,1v4.857a22.035,22.035,0,0,1,4.853,2.012L92.146,34.4a1,1,0,0,1,1.414,0l7.084,7.084a1,1,0,0,1,0,1.414l-3.436,3.437a22.012,22.012,0,0,1,2.012,4.853h4.857a1,1,0,0,1,1,1v10.02a1,1,0,0,1-1,1H99.221a22.012,22.012,0,0,1-2.012,4.853l3.436,3.437a1,1,0,0,1,0,1.414l-2.1,2.1a1,1,0,0,1-.66.292,4.023,4.023,0,0,0-3.845,3.845,1,1,0,0,1-.292.66,1.029,1.029,0,0,1-1.1.229,1,1,0,0,1-.629-.912V76.789a4.058,4.058,0,1,0-8.117,0,1,1,0,0,1-2,0v-7a1,1,0,0,1,.627-.928A12.568,12.568,0,1,0,70.82,46.772a1,1,0,0,1-1.12-1.657,14.569,14.569,0,1,1,14.2,25.33v1.85a6.055,6.055,0,0,1,9.873,2.792,6.016,6.016,0,0,1,3.617-1.749L98.523,72.2l-3.275-3.275A1,1,0,0,1,95.1,67.7a20.052,20.052,0,0,0,2.375-5.728,1,1,0,0,1,.972-.765h4.629v-8.02H98.449a1,1,0,0,1-.972-.765A20.052,20.052,0,0,0,95.1,46.694a1,1,0,0,1,.146-1.228l3.275-3.275-5.67-5.67-3.275,3.275a1,1,0,0,1-1.228.146,20.061,20.061,0,0,0-5.729-2.375,1,1,0,0,1-.765-.972V31.965H73.838v4.629a1,1,0,0,1-.765.972,20.058,20.058,0,0,0-5.729,2.375,1,1,0,0,1-1.228-.146L62.842,36.52l-5.671,5.67,3.275,3.275a1,1,0,0,1,.146,1.228,20.063,20.063,0,0,0-2.375,5.728,1,1,0,0,1-.972.765H52.617v8.02h4.629a1,1,0,0,1,.972.765A20.063,20.063,0,0,0,60.593,67.7a1,1,0,0,1-.146,1.228L57.171,72.2l5.671,5.67L66.117,74.6a1,1,0,0,1,1.228-.146,20.058,20.058,0,0,0,4.437,2.014V70.438A14.57,14.57,0,0,1,64.954,50.4a1,1,0,0,1,1.769.934,12.57,12.57,0,0,0,6.433,17.515,1,1,0,0,1,.626.928v8a1,1,0,0,1-1.238.971,22.076,22.076,0,0,1-5.559-2.2l-3.436,3.436A1,1,0,0,1,62.842,80.287Z" fill="#785ae6"/><path d="M120.051,87.2h-6.8a1,1,0,0,1-1-1V83.427a4.058,4.058,0,1,0-8.117,0,1,1,0,0,1-2,0V79.338a4.058,4.058,0,1,0-8.116,0,1,1,0,0,1-2,0v-2.55a4.058,4.058,0,1,0-8.117,0,1,1,0,0,1-2,0V58.681a4.058,4.058,0,0,0-8.117,0V86.2a1,1,0,0,1-1,1H35.644a3.263,3.263,0,0,1-3.259-3.259V17.934a3.268,3.268,0,0,1,3.264-3.264h84.4a3.268,3.268,0,0,1,3.264,3.264V83.943A3.263,3.263,0,0,1,120.051,87.2Zm-5.8-2h5.8a1.261,1.261,0,0,0,1.259-1.259V17.934a1.265,1.265,0,0,0-1.264-1.264h-84.4a1.265,1.265,0,0,0-1.264,1.264V83.943A1.261,1.261,0,0,0,35.644,85.2H71.782V58.681a6.058,6.058,0,0,1,12.117,0V72.294a6.055,6.055,0,0,1,9.871,2.785,6.055,6.055,0,0,1,10.349,3.866,6.055,6.055,0,0,1,10.129,4.483Z" fill="#785ae6"/><path d="M122.31,29.19h-9.062a1,1,0,0,1,0-2h8.062V17.934a1.265,1.265,0,0,0-1.264-1.264h-84.4a1.265,1.265,0,0,0-1.264,1.264V27.19h69.694a1,1,0,0,1,0,2H33.384a1,1,0,0,1-1-1V17.934a3.268,3.268,0,0,1,3.264-3.264h84.4a3.268,3.268,0,0,1,3.264,3.264V28.19A1,1,0,0,1,122.31,29.19Z" fill="#785ae6"/><path d="M107.176,128H78.854a1,1,0,0,1-1-1V116.97a1,1,0,0,1,1-1H94.477a1,1,0,0,1,0,2H79.854V126h26.322v-8.03H103.85a1,1,0,0,1,0-2h3.326a1,1,0,0,1,1,1V127A1,1,0,0,1,107.176,128Z" fill="#785ae6"/><path d="M78.854,118.1a1,1,0,0,1-.7-.286,21.307,21.307,0,0,1-1.528-1.664L55.368,94.9a3.8,3.8,0,0,1,0-5.361,8.921,8.921,0,0,1,12.616,0l3.8,3.8V58.681a6.058,6.058,0,0,1,12.117,0V72.294a6.055,6.055,0,0,1,9.871,2.785,6.055,6.055,0,0,1,10.349,3.866,6.055,6.055,0,0,1,10.129,4.483v19.222a21.071,21.071,0,0,1-6.372,15.154,1,1,0,0,1-1.087.208.932.932,0,0,1-.086-.041H103.85a1,1,0,0,1,0-2h3.027a19.071,19.071,0,0,0,5.371-13.321V83.427a4.058,4.058,0,1,0-8.117,0,1,1,0,0,1-2,0V79.338a4.058,4.058,0,1,0-8.116,0,1,1,0,0,1-2,0v-2.55a4.058,4.058,0,1,0-8.117,0,1,1,0,0,1-2,0V58.681a4.058,4.058,0,0,0-8.117,0V95.75a1,1,0,0,1-1.707.707l-5.5-5.5a6.928,6.928,0,0,0-9.788,0,1.791,1.791,0,0,0,0,2.533L78.1,114.807c.354.424.694.805,1.038,1.163H94.477a1,1,0,0,1,0,2H79.346a1.008,1.008,0,0,1-.492.129Z" fill="#785ae6"/></svg>
