<svg xmlns="http://www.w3.org/2000/svg" viewBox="0 0 193 26"><path d="M2.9 18.7C4.5 20.1 6.5 21 8.3 21c2.1 0 3.1-.8 3.1-2.1 0-1.4-1.3-1.8-3.2-2.6l-2.8-1.2c-2.3-.9-4.5-2.8-4.5-6 0-3.7 3.3-6.6 7.8-6.6 2.5 0 5.2 1 7.1 2.9l-2.5 3.1c-1.5-1.1-2.8-1.8-4.6-1.8-1.6.1-2.7.8-2.7 2.1 0 1.4 1.5 1.8 3.4 2.6l2.8 1.1c2.7 1.1 4.4 2.9 4.4 6 0 3.7-3 6.8-8.3 6.8-2.9 0-5.9-1.1-8.2-3.2l2.8-3.4zM19.8 1.2h5V7l-.2 3c1.3-1.1 2.9-2.3 5.2-2.3 3.7 0 5.2 2.6 5.2 6.8v10.4h-5v-9.8c0-2.4-.6-3.2-2.1-3.2-1.3 0-2 .6-3.1 1.6v11.3h-5V1.2zm26.5 6.5c4.2 0 8.1 3.2 8.1 8.8s-3.9 8.8-8.1 8.8c-4.3 0-8.2-3.2-8.2-8.8s4-8.8 8.2-8.8zm0 13.6c2 0 3.1-1.9 3.1-4.8s-1-4.8-3.1-4.8-3.1 1.9-3.1 4.8 1.1 4.8 3.1 4.8zm10-13.1h4.9l1.6 7.8c.3 1.7.5 3.3.7 5h.1c.3-1.7.6-3.4 1-5l1.9-7.8h4.3l1.9 7.8c.4 1.7.7 3.3 1 5h.1c.3-1.7.5-3.3.8-5l1.6-7.8h4.6l-4 16.8H71l-1.5-6.7c-.3-1.6-.6-3.1-.9-4.9h-.1c-.3 1.8-.5 3.3-.8 4.9L66.2 25h-5.7L56.3 8.2z"/><path d="M87.6 7.1h-6.1V2.9h17.1v4.2h-6.1V25h-5l.1-17.9zm12.7 1.1h4.1l.3 2.9h.1c1.2-2.3 3-3.3 4.8-3.3.9 0 1.5.1 2 .3l-.8 4.3c-.6-.2-1.1-.3-1.8-.3-1.3 0-2.8.8-3.7 3.1v9.7h-5V8.2zm21.3 5.9c-.1-1.5-.8-2.4-2.6-2.4-1.4 0-2.8.6-4.5 1.5l-1.8-3.3c2.1-1.3 4.5-2.2 7.2-2.2 4.3 0 6.7 2.4 6.7 7.6v9.6h-4.1l-.4-1.7h-.1c-1.4 1.3-3 2.1-4.9 2.1-3 0-5-2.2-5-5.1.1-3.5 2.9-5.4 9.5-6.1zm-2.8 7.4c1.1 0 1.9-.5 2.8-1.4v-2.9c-3.6.5-4.7 1.5-4.7 2.8 0 1 .7 1.5 1.9 1.5zm19.8-13.8c2.1 0 3.8.8 4.9 1.9l-2.3 3.1c-.8-.7-1.6-1-2.3-1-2.4 0-3.9 1.9-3.9 4.8s1.6 4.8 3.8 4.8c1.2 0 2.2-.6 3-1.2l2 3.1c-1.6 1.4-3.8 2.1-5.6 2.1-4.7 0-8.3-3.2-8.3-8.8s4-8.8 8.7-8.8zm8-6.5h4.8v13.6h.1l5.3-6.7h5.4l-5.9 6.9 6.3 9.9h-5.4l-3.8-6.5-2.1 2.4v4.1h-4.8l.1-23.7zm24.5 6.5c4.8 0 7.1 3.5 7.1 8 0 .9-.1 1.7-.2 2.1h-10c.4 2.5 2.1 3.7 4.4 3.7 1.3 0 2.4-.4 3.6-1.1l1.7 3c-1.7 1.2-4 1.9-6 1.9-4.8 0-8.5-3.2-8.5-8.8 0-5.4 3.9-8.8 7.9-8.8zm2.9 7.1c0-1.9-.8-3.3-2.8-3.3-1.6 0-2.9 1-3.2 3.3h6zm7.7-6.6h4.1l.3 2.9h.1c1.2-2.3 3-3.3 4.8-3.3.9 0 1.5.1 2 .3l-.8 4.3c-.6-.2-1.1-.3-1.8-.3-1.3 0-2.8.8-3.7 3.1v9.7h-5V8.2z" fill="#540cfa"/></svg>